<?xml version="1.0" encoding="UTF-8" standalone="no"?>
<svg
   xmlns:dc="http://purl.org/dc/elements/1.1/"
   xmlns:cc="http://creativecommons.org/ns#"
   xmlns:rdf="http://www.w3.org/1999/02/22-rdf-syntax-ns#"
   xmlns:svg="http://www.w3.org/2000/svg"
   xmlns="http://www.w3.org/2000/svg"
   xmlns:sodipodi="http://sodipodi.sourceforge.net/DTD/sodipodi-0.dtd"
   xmlns:inkscape="http://www.inkscape.org/namespaces/inkscape"
   width="138"
   height="207"
   version="1.1"
   id="svg76"
   sodipodi:docname="font2.svg"
   inkscape:version="0.92.4 (5da689c313, 2019-01-14)">
  <metadata
     id="metadata82">
    <rdf:RDF>
      <cc:Work
         rdf:about="">
        <dc:format>image/svg+xml</dc:format>
        <dc:type
           rdf:resource="http://purl.org/dc/dcmitype/StillImage" />
      </cc:Work>
    </rdf:RDF>
  </metadata>
  <defs
     id="defs80" />
  <sodipodi:namedview
     pagecolor="#ffffff"
     bordercolor="#666666"
     borderopacity="1"
     objecttolerance="10"
     gridtolerance="10"
     guidetolerance="10"
     inkscape:pageopacity="0"
     inkscape:pageshadow="2"
     inkscape:window-width="3840"
     inkscape:window-height="1973"
     id="namedview78"
     showgrid="false"
     inkscape:zoom="6.4493604"
     inkscape:cx="-25.293997"
     inkscape:cy="92.605886"
     inkscape:window-x="-18"
     inkscape:window-y="-18"
     inkscape:window-maximized="1"
     inkscape:current-layer="svg76" />
  <path
     style="fill:#d4c0b8; stroke:none;"
     d="M0 0C0 6.78857 -0.912777 14.3202 0.375772 21C1.86068 28.6978 6.34698 35.6874 9 43C5.02105 39.2071 2.85661 33.1112 1 28C-0.980563 32.7199 0 38.9198 0 44L0 77L0 192C1.31415 191.232 1.23211 191.314 2 190C4.04169 190.895 5.82775 191.536 8 192L7 188C11.4061 187.228 15.6782 186.151 20 185C18.5485 187.417 17.7251 187.846 15 187C13.2324 188.348 12.0175 189.122 10 190C12.0443 190.774 12.8446 190.592 15 190C12.5078 192.172 9.07638 192.528 7 195L10 194C7.43788 197.076 4.10687 199.658 2 203L8 201C5.17692 208.385 12.9751 207.555 17 204L15 201L18 200C17.6422 197.202 17.5856 195.438 19 193L19 189C19.8163 191.219 20.0459 192.632 20 195C22.3786 195.027 22.6831 195.06 24 197C22.5215 196.014 22.7968 196 21 196L19 200C21.1236 199.101 21.1007 199.124 22 197C22.4249 200.545 21.9909 203.577 21 207C23.7386 206.789 24.422 206.697 25 204C25.9857 205.479 26 205.203 26 207L31 207C31.079 203.678 31.5466 202.24 34 200C32.7052 196.463 30.7665 193.322 29 190C27.3385 190.613 26.5167 191.043 25 192L27 187L24 188C24.9573 186.483 25.3872 185.661 26 184L24 184C24.682 177.199 23.8288 168.599 30 164C30 169.123 29.4108 174.877 31.4599 179.711C33.4888 184.497 37.6451 188.288 40 193C51.6404 192.722 63.5438 201.635 75 204L79 199C80.1863 200.036 80.6036 200.339 82 201C81.2321 199.686 81.3142 199.768 80 199C80.9857 197.521 81 197.797 81 196L79 196L79 194C81.5925 193.492 83.4075 193.492 86 194C85.2607 191.433 84.3175 189.327 83 187L88 190L89 179C95.3641 178.504 94.9958 174.472 95 169L85 169C85.2687 166.496 85.4221 164.47 85 162C87.2167 160.837 88.3942 159.914 90 158C88.2032 158 88.4785 158.014 87 159L88 155C84.9097 155.009 81.0275 154.562 78.51 156.742C71.8745 162.489 73.5037 175.201 63 176C62.6824 169.363 68.9198 157.173 63 152C66.0021 146.303 67.0779 141.341 66 135C67.4785 135.986 67.2032 136 69 136L70 129C68.8048 127.777 68.6836 127.58 68 126L72 126C64.2869 122.854 55.5726 128.338 48.2137 121.606C44.5112 118.218 43.4974 112.715 42.5131 108C42.0738 105.896 42.3518 102.476 40.3966 101.067C35.6986 97.6807 27.797 102.118 27 107C24.9076 107.406 24.9802 107.217 24 109C20.6314 108.552 18.8785 109.251 16 111L17 108C12.3029 105.149 8.19009 104.044 6 110C3.25011 102.67 3.43473 95.6553 2.91049 88C2.36868 80.088 0.952438 71.8923 2.66975 64.0008C3.90575 58.321 7.40601 53.5701 9 48C7.80484 49.2228 7.68357 49.42 7 51C7.38982 42.9404 15.3592 36.7877 23 36C26.2833 28.9789 33.9587 24.2661 40 19.6543C47.9923 13.5532 57.2926 5.01215 67 1.9892C77.0708 -1.14691 84.6697 3.54855 94 6.07253C98.3199 7.24112 102.908 6.66158 107 8.6875C111.282 10.8075 114.496 14.2579 119 16C116.45 12.8491 113.706 10.652 110 9C114.803 8.86473 119.23 13.236 122 17C127.312 15.5036 132.456 14.115 138 14L138 0L0 0z"
     id="path2" />
  <path
     style="fill:#5b443d; stroke:none;"
     d="M23 36C14.3311 36.4507 7.83225 42.5797 6 51C7.01542 49.8607 7.30866 49.3884 8 48C7.30325 54.0425 3.1846 58.8884 2.30015 65C0.185102 79.6152 3.13339 95.5457 5 110C9.29597 105.463 11.3549 105.517 17 108C16.0143 109.479 16 109.203 16 111C18.7995 109.849 20.9433 109.013 24 109C25.2228 107.805 25.42 107.684 27 107C28.3284 102.527 35.9493 97.7385 40.3966 101.693C44.0751 104.964 43.0142 114.471 45.4529 118.957C50.5986 128.421 63.4045 125.369 72 125L68 126C68.4057 128.092 68.2167 128.02 70 129C69.428 131.377 69.1095 133.558 69 136L66 135C66.3565 140.97 65.8177 145.646 63 151C67.7401 159.523 62.1024 167.336 63 176C73.5451 175.655 72.361 163.693 78.51 157.434C81.0392 154.859 84.6677 155.03 88 155L87 159L90 158L85 162L85 169L95 169C94.9815 174.251 94.8717 178.064 89 179C88.5848 182.717 87.7476 186.257 88 190C86.334 188.798 84.8613 187.84 83 187L86 194C83.2545 193.236 81.7455 193.236 79 194C79.7679 195.314 79.6858 195.232 81 196C80.9218 198.083 81.1577 199.081 82 201L79 199C77.1983 200.666 76.1097 201.846 75 204C66.715 201.666 59.1064 198.267 51 195.481C47.0936 194.138 44.1588 192.289 40 193C38.1125 187.534 33.5937 184.037 31.4599 178.829C29.5671 174.211 30 168.88 30 164C23.2539 167.808 24.3377 177.356 24 184L26 184L24 188C25.7968 188 25.5215 187.986 27 187L25 192L29 190C30.2948 193.537 32.2335 196.678 34 200C30.7988 201.806 30.5974 203.42 31 207L36 207L35 202C36.6559 203.686 37.2507 204.746 38 207L86 207C91.8032 207 100.218 208.623 105 205C108.845 207.685 111.292 206.335 115 204C116.672 211.802 122.867 200.868 124 198C123.735 201.303 122.161 203.892 121 207C123.403 206.832 124.46 206.803 126 205C130.068 206.724 133.62 206.997 138 207C137.559 204.515 136.924 202.349 136 200L138 200C135.731 195.484 131.799 194.002 127 193C128.337 188.714 130.713 182.561 127 179C128.036 177.814 128.339 177.396 129 176C127.107 173.994 124.299 170.722 123.942 167.91C123.243 162.404 127.774 154.609 128.75 149C130.478 139.073 130.053 128.91 131.934 119C133.977 108.237 137.999 99.2592 138 88L135 88C135.383 83.609 137.024 79.438 136.946 75C136.752 64.0322 133.902 53.439 130.91 43C129.689 38.7399 129.153 34.0657 127.352 30C125.76 26.4062 122.958 23.4037 121 20L122 19L125 20C128.78 16.7126 133.191 17.0032 138 17L138 14C132.419 14.0462 127.224 15.0293 122 17C119.785 12.5102 114.941 8.80937 110 8C112.773 10.9177 115.965 13.3559 119 16C114.618 13.479 110.838 9.49062 106 7.85417C101.799 6.43344 97.2467 6.94144 93 5.45215C84.0947 2.32913 75.6168 -1.00555 66 1.9892C57.18 4.73581 49.3997 12.114 42 17.4282C35.4796 22.111 25.2623 27.9623 23 36z"
     id="path4" />
  <path
     style="fill:#d4c0b8; stroke:none;"
     d="M125 20C123.521 19.0143 123.797 19 122 19L121 20C122.685 24.3572 126.102 27.6403 127.741 32C132.662 45.0972 136.592 60.9921 136.87 75C136.958 79.3905 135.201 83.597 135 88L138 88L138 17C133.503 17.0005 127.968 16.1008 125 20z"
     id="path6" />
  <path
     style="fill:#5b443d; stroke:none;"
     d="M0 22C0.0777612 28.3678 3.15393 39.6225 9 43C7.31562 36.2595 4.07063 27.6195 0 22z"
     id="path8" />
  <path
     style="fill:#d4c0b8; stroke:none;"
     d="M48.3333 26.6667C48.2778 26.7222 48.2222 27.7778 48.6667 27.3333C48.7222 27.2778 48.7778 26.2222 48.3333 26.6667M124 28C124.684 29.58 124.805 29.7772 126 31C125.316 29.42 125.195 29.2228 124 28M64 29L64 32C59.6389 30.9617 55.4222 31.2508 51 30.8302C48.1671 30.5608 45.0694 29.5418 42.2855 30.5926C37.9051 32.2459 35.199 36.9118 31 39C29.6064 50.3747 25.5683 61.3694 25 73C26.2997 72.3501 26 72.8532 26 71C26.0476 73.3301 26.2034 73.006 24 74L23 84L27 83C24.7682 88.4311 18.9115 94.3555 19 100C21.2254 97.3922 23.208 95.0275 26 93C25.0143 94.4785 25 94.2032 25 96L29 96C25.4728 97.9695 22.8387 99.3178 21 103C27.4129 101.17 33.3093 98.864 40 98C39.2321 96.6859 39.3141 96.7679 38 96C44.6178 93.1527 51.9593 92.3654 59 91C57.7517 90.3152 57.4516 90.2512 56 90C57.7425 88.8887 58.1193 88.7295 59 87L62 88L62 86C65.2645 86.9922 68.6379 87.3738 72 88C74.9371 86.0025 79.4308 86.8436 79 91C82.1163 92.9581 85.3498 93.6813 89 94C85.8964 89.0343 89.0421 82.6349 81 82C82.1122 75.9879 80.9608 70.9436 80.4938 65C80.1273 60.335 80.8525 55.5652 80 51C79.4257 52.8092 79.5347 53.0688 80 55C78.8048 53.7772 78.6836 53.58 78 52C76.2032 52 76.4785 52.0143 75 53C76.2064 50.9537 77.2478 49.5896 79 48L78 45L80 45L79 40L81 41C80.5937 38.0762 80.3233 35.8754 78 34L81 32C75.63 29.1194 69.8764 29.8549 64 29M14.3333 65.6667C14.2778 65.7222 14.2222 66.7778 14.6667 66.3333C14.7222 66.2778 14.7778 65.2222 14.3333 65.6667M16 79C15.4382 80.8006 15.1759 82.1218 15 84C16.3182 82.0739 16.6514 81.2341 16 79z"
     id="path10" />
  <path
     style="fill:#5b443d; stroke:none;"
     d="M24 79L24 81L26 81L26 79L24 79M29 83C27.8253 85.3386 26.8223 87.1419 25 89C28.2437 89.081 29.4765 85.9144 29 83z"
     id="path12" />
  <path
     style="fill:#d4c0b8; stroke:none;"
     d="M12 85L13 86L12 85M4.66667 88.3333C4.22221 88.7778 5.27777 88.7222 5.33333 88.6667C5.77775 88.2223 4.72223 88.2778 4.66667 88.3333M128 92L132 91C129.954 90.2489 129.404 90.3444 128 92M13 93L13 95L15 95C14.455 93.3649 14.6352 93.5451 13 93M75 94C83.5185 102.287 71.2969 115.757 62 117C62.545 115.365 62.3649 115.545 64 115C63.2235 112.868 62.8698 112.229 61 111C62.0356 109.814 62.3387 109.396 63 108C58.2641 106.533 54.9199 104.269 50 106C51.5634 102.669 56.3053 99.5227 55 96L59 95C49.0568 91.1206 44.8014 99.7092 45.0147 108C45.2273 116.269 48.4576 122.079 57 123.532C62.7022 124.501 73.5117 123.521 77.4367 118.772C79.4671 116.316 79.9021 112.872 81.1042 110C83.5906 104.06 87.7815 97.4284 79.0401 94.4336C77.7634 93.9962 76.3186 94.0722 75 94M128 110C135.719 108.391 134.996 100.525 135 94C126.205 95.7078 126.306 102.488 128 110M137 98C137 106.299 132.911 113.357 131 121C130.294 123.824 131.706 127.176 131 130C129.08 137.68 129.92 146.321 128 154C127.134 157.465 125.393 161.657 124 165C123.536 166.113 122.052 168.42 123 170C124.154 171.924 126.907 172.451 128 175C128.161 175.375 125.886 175.377 129 176L129 178C127.147 178 127.65 177.7 127 179C130.189 183.232 127.957 188.336 127 193C130.908 194.265 134.422 195.992 138 198L138 129C138 119.94 140.507 106.357 137 98M8 99L8 101C9.63515 100.455 9.45495 100.635 10 99L8 99M13 99L12 103C13.8698 101.771 14.2235 101.132 15 99L13 99M5 100L5 103C5.69611 101.446 5.6961 101.554 5 100M56 102C57.6115 104.452 59.1934 105.151 62 106L61 101L56 102M89 102C85.9549 109.067 85.0607 117.035 80 123L82 118C77.9574 121.417 76.0579 128.505 81 132L80 128C82.1209 127.754 83.8742 127.769 86 128C80.4756 135.934 75.7511 142.057 77 152C81.1524 150.982 85.1206 148.818 89 147C87.524 138.93 91.3711 132.887 92 125L95 125C94.8613 118.278 92.7413 111.698 93 105C91.8048 103.777 91.6836 103.58 91 102L89 102M125 102L125 106C125.71 104.241 125.71 103.759 125 102M21 105L20 107L22 107C22 105.147 22.2997 105.65 21 105M63 106C64.2484 106.685 64.5484 106.749 66 107C64.7516 106.315 64.4516 106.251 63 106M83.3333 108.667C83.2778 108.722 83.2222 109.778 83.6667 109.333C83.7222 109.278 83.7778 108.222 83.3333 108.667z"
     id="path14" />
  <path
     style="fill:#5b443d; stroke:none;"
     d="M8 110L9 118L11 118C11.0583 115.216 11.3521 112.709 12 110L8 110z"
     id="path16" />
  <path
     style="fill:#d4c0b8; stroke:none;"
     d="M132 110L128 112C128.564 113.752 128.919 114.542 130 116C131.187 113.87 132.037 112.407 132 110z"
     id="path18" />
  <path
     style="fill:#5b443d; stroke:none;"
     d="M25 112L26 113L25 112M24 116C23.3562 118.106 23.0941 119.795 23 122C24.3054 119.819 24.7355 118.433 24 116z"
     id="path20" />
  <path
     style="fill:#d4c0b8; stroke:none;"
     d="M126.667 116.333C126.222 116.778 127.278 116.722 127.333 116.667C127.778 116.222 126.722 116.278 126.667 116.333z"
     id="path22" />
  <path
     style="fill:#5b443d; stroke:none;"
     d="M7 117C7.10676 120.301 7.27679 122.039 10 124C9.19816 121.518 8.33343 119.237 7 117M19 130C18.2159 125.322 20.8481 121.696 21 117C18.0426 118.27 14.3837 120.15 13.0286 123.325C10.9453 128.205 14.817 130.703 19 130z"
     id="path24" />
  <path
     style="fill:#d4c0b8; stroke:none;"
     d="M123 121C126.452 122.006 128.657 120.536 131 118L123 121z"
     id="path26" />
  <path
     style="fill:#5b443d; stroke:none;"
     d="M7.33333 124.667C7.27779 124.722 7.22222 125.778 7.66667 125.333C7.72223 125.278 7.77778 124.222 7.33333 124.667M21.3333 131.667C21.2778 131.722 21.2222 132.778 21.6667 132.333C21.7222 132.278 21.7778 131.222 21.3333 131.667M11 132C11.3266 135.721 12.267 138.695 14 142C14.6206 138.519 13.0353 134.841 11 132M22 144L24 149C24.375 146.581 23.6927 145.782 22 144M25 168L26 169L25 168M88 172C89.0932 174.978 91.194 178.076 94 175L91 176C90.3265 173.703 90.0347 173.226 88 172z"
     id="path28" />
  <path
     style="fill:#d4c0b8; stroke:none;"
     d="M119 176C118.014 177.479 118 177.203 118 179C119.289 177.557 119.401 177.766 119 176z"
     id="path30" />
  <path
     style="fill:#5b443d; stroke:none;"
     d="M20.3333 182.667C20.2778 182.722 20.2222 183.778 20.6667 183.333C20.7222 183.278 20.7778 182.222 20.3333 182.667z"
     id="path32" />
  <path
     style="fill:#d4c0b8; stroke:none;"
     d="M27 182L28 183L27 182M127.333 183.667C127.278 183.722 127.222 184.778 127.667 184.333C127.722 184.278 127.778 183.222 127.333 183.667z"
     id="path34" />
  <path
     style="fill:#5b443d; stroke:none;"
     d="M7 188L8 192L2 190C1.45495 191.635 1.63516 191.455 0 192C0.597713 193.195 0.466091 192.977 2 194C-0.502425 197.831 0.00938274 202.526 0 207L4 204C4.48245 206.364 4.63599 206.518 7 207C6.96144 204.75 7.29135 203.141 8 201C5.82775 201.464 4.04169 202.105 2 203C4.87283 199.965 7.83347 197.661 10 194C8.20318 194 8.47852 194.014 7 195C9.61579 192.937 12.9542 192.691 15 190L10 191C12.0781 189.78 13.417 188.793 15 187C17.7771 188.878 19.1155 188.191 20 185C15.6598 185.851 11.2211 186.716 7 188z"
     id="path36" />
  <path
     style="fill:#d4c0b8; stroke:none;"
     d="M121 185L122 186L121 185M126.333 186.667C126.278 186.722 126.222 187.778 126.667 187.333C126.722 187.278 126.778 186.222 126.333 186.667z"
     id="path38" />
  <path
     style="fill:#5b443d; stroke:none;"
     d="M19 189C18.5983 190.943 18.5983 191.057 19 193C16.5263 194.783 17.1539 197.271 18 200C16.2032 200 16.4785 200.014 15 201C15.6614 202.396 15.9644 202.814 17 204C15.8048 205.223 15.6836 205.42 15 207C18.0885 206.908 20.2578 206.428 23 205C22.707 202.267 22.7702 199.738 23 197L19 200C20.6323 198.001 21.4609 197.418 24 197C23.386 194.149 22.6973 194.146 20 195C20.3738 192.391 20.3933 191.213 19 189z"
     id="path40" />
  <path
     style="fill:#d4c0b8; stroke:none;"
     d="M125 190L122 197C123.783 196.02 123.594 196.092 124 194C125.111 195.742 125.27 196.119 127 197C126.652 194.428 126.222 192.283 125 190M116 194C118.539 194.591 119.848 193.455 122 192C119.507 191.749 118.179 192.679 116 194z"
     id="path42" />
  <path
     style="fill:#5b443d; stroke:none;"
     d="M28 192L27 196C28.1456 194.36 28.393 193.924 28 192z"
     id="path44" />
  <path
     style="fill:#d4c0b8; stroke:none;"
     d="M0 193L0 195L2 195L2 193L0 193z"
     id="path46" />
  <path
     style="fill:#5b443d; stroke:none;"
     d="M74 193C75.3766 193.911 76.4399 194.404 78 195C76.686 193.382 76.1228 193.307 74 193M11 194L11 196L14 196L14 194L11 194z"
     id="path48" />
  <path
     style="fill:#d4c0b8; stroke:none;"
     d="M112 196L113 199L115 199L116 198L116 196L115 195C113.203 195 113.479 195.014 112 196z"
     id="path50" />
  <path
     style="fill:#5b443d; stroke:none;"
     d="M29 196L28 200C29.303 198.332 29.553 198.008 29 196z"
     id="path52" />
  <path
     style="fill:#d4c0b8; stroke:none;"
     d="M129 196C130.001 197.924 130.077 198.098 132 199C131.101 196.876 131.124 196.899 129 196M0.333333 197.667C0.277777 197.722 0.222223 198.778 0.666667 198.333C0.722223 198.278 0.777777 197.222 0.333333 197.667M3 199C4.58 198.316 4.77722 198.195 6 197C3.90759 197.406 3.98024 197.217 3 199M120 197L119 201C120.656 199.596 120.751 199.046 120 197z"
     id="path54" />
  <path
     style="fill:#5b443d; stroke:none;"
     d="M10 201C11.9238 199.999 12.0985 199.923 13 198C10.8764 198.899 10.8993 198.876 10 201M25.3333 198.667C25.2778 198.722 25.2222 199.778 25.6667 199.333C25.7222 199.278 25.7778 198.222 25.3333 198.667z"
     id="path56" />
  <path
     style="fill:#d4c0b8; stroke:none;"
     d="M109 198C109.674 200.297 109.965 200.774 112 202C111.064 200.051 110.608 199.45 109 198M124 198C122.198 200.945 120.46 203.873 119 207C122.232 205.037 124.899 201.893 124 198M128 199C130.15 201.166 130.989 201.472 134 201C132.059 200.049 130.102 199.561 128 199z"
     id="path58" />
  <path
     style="fill:#5b443d; stroke:none;"
     d="M23 200C23.4057 202.092 23.2167 202.02 25 203C24.3164 201.42 24.1952 201.223 23 200z"
     id="path60" />
  <path
     style="fill:#d4c0b8; stroke:none;"
     d="M136 200C136.684 201.58 136.805 201.777 138 203L138 200L136 200M105 202C106.103 203.457 106.543 203.897 108 205C108.986 203.521 109 203.797 109 202L108 201C106.203 201 106.479 201.014 105 202M116 201L116 205L118 205L118 201L116 201M127 201L126 203L128 203C128 201.147 128.3 201.65 127 201z"
     id="path62" />
  <path
     style="fill:#5b443d; stroke:none;"
     d="M11 202C9.81369 203.186 9.47206 203.584 9 205C10.9943 204.153 11.699 203.993 11 202z"
     id="path64" />
  <path
     style="fill:#d4c0b8; stroke:none;"
     d="M35 202C35.648 204.394 36.0324 205.536 38 207C37.4743 204.457 37.1222 203.465 35 202M19 203L20 204L19 203z"
     id="path66" />
  <path
     style="fill:#5b443d; stroke:none;"
     d="M28.3333 203.667C28.2778 203.722 28.2222 204.778 28.6667 204.333C28.7222 204.278 28.7778 203.222 28.3333 203.667z"
     id="path68" />
  <path
     style="fill:#d4c0b8; stroke:none;"
     d="M102 203L101 205C102.263 204.029 102.392 204.306 102 203M130 203C131.229 204.87 131.868 205.224 134 206C133.422 203.303 132.739 203.211 130 203M3 204C1.96442 205.186 1.66135 205.604 1 207C3.25079 206.527 4.11775 206.14 3 204z"
     id="path70" />
  <path
     style="fill:#5b443d; stroke:none;"
     d="M25 204L25 207C25.6961 205.446 25.6961 205.554 25 204z"
     id="path72" />
  <path
     style="fill:#d4c0b8; stroke:none;"
     d="M104 204L105 205L104 204M113 204L112 205L112 207C114.364 206.518 114.518 206.364 115 204L113 204M137.333 204.667C137.278 204.722 137.222 205.778 137.667 205.333C137.722 205.278 137.778 204.222 137.333 204.667M105 205L104 207L106 207C106 205.147 106.3 205.65 105 205M126 205C126.98 206.783 126.908 206.594 129 207C127.777 205.805 127.58 205.684 126 205z"
     id="path74" />
  <text
     xml:space="preserve"
     style="font-style:italic;font-variant:normal;font-weight:normal;font-stretch:normal;font-size:16px;line-height:1.25;font-family:Elephant;-inkscape-font-specification:'Elephant Italic';letter-spacing:0px;word-spacing:0px;fill:#d4c0b8;fill-opacity:1;stroke:none;"
     x="9.6133566"
     y="198.78214"
     id="text3789"><tspan
       sodipodi:role="line"
       id="tspan3787"
       x="9.6133566"
       y="227.91942" /></text>
  <text
     xml:space="preserve"
     style="font-style:italic;font-variant:normal;font-weight:normal;font-stretch:normal;font-size:16px;line-height:1.25;font-family:Elephant;-inkscape-font-specification:'Elephant Italic';letter-spacing:0px;word-spacing:0px;fill:#000000;fill-opacity:1;stroke:none;"
     x="96.133568"
     y="41.557236"
     id="text3793"><tspan
       sodipodi:role="line"
       id="tspan3791"
       x="96.133568"
       y="70.694519" /></text>
  <text
     xml:space="preserve"
     style="font-style:italic;font-variant:normal;font-weight:normal;font-stretch:normal;font-size:13.33333333px;line-height:1.25;font-family:Elephant;-inkscape-font-specification:'Elephant Italic';letter-spacing:0px;word-spacing:0px;fill:#d4c0b8;fill-opacity:1;stroke:none;"
     x="81.713531"
     y="36.440453"
     id="text3797"><tspan
       sodipodi:role="line"
       x="81.713531"
       y="51.009094"
       id="tspan4610" /></text>
</svg>
